<?xml version="1.0" standalone="no"?>
<!DOCTYPE svg PUBLIC "-//W3C//DTD SVG 20010904//EN"
 "http://www.w3.org/TR/2001/REC-SVG-20010904/DTD/svg10.dtd">
<svg version="1.0" xmlns="http://www.w3.org/2000/svg"
 width="642.000000pt" height="763.000000pt" viewBox="0 0 642.000000 763.000000"
 preserveAspectRatio="xMidYMid meet">
<metadata>
Created by potrace 1.16, written by Peter Selinger 2001-2019
</metadata>
<g transform="translate(0.000000,763.000000) scale(0.100000,-0.100000)"
fill="#000000" stroke="none">
<path d="M2457 7603 c-7 -34 -99 -139 -130 -149 -39 -12 -159 -114 -292 -249
-71 -73 -184 -174 -250 -226 -66 -51 -146 -115 -178 -141 -32 -27 -82 -64
-112 -83 -59 -38 -69 -52 -78 -109 -4 -22 -23 -64 -43 -94 -44 -66 -57 -107
-43 -133 12 -24 62 -25 115 -3 38 16 39 16 61 -10 12 -14 26 -33 31 -42 7 -13
19 -10 86 25 42 23 85 41 95 41 29 0 91 51 257 211 223 215 372 309 569 358
49 13 87 30 122 57 29 22 85 57 125 78 152 81 163 101 103 194 -18 30 -31 60
-28 68 10 27 125 92 192 109 141 36 173 57 138 92 -15 15 -38 18 -140 19 -67
1 -228 5 -358 8 l-236 7 -6 -28z"/>
<path d="M5356 7583 c-22 -7 -95 -19 -163 -26 -68 -6 -123 -14 -123 -17 0 -3
43 -25 96 -49 52 -24 106 -53 120 -64 23 -18 24 -21 9 -43 -25 -38 -19 -60 21
-79 27 -13 49 -15 89 -10 49 6 55 4 88 -24 19 -17 42 -31 51 -31 27 0 38 48
31 130 -8 91 -42 160 -99 202 -43 31 -62 33 -120 11z"/>
<path d="M3100 7340 c-122 -12 -142 -18 -138 -43 4 -30 37 -32 196 -12 94 12
135 22 139 32 3 8 3 17 -1 20 -10 10 -113 12 -196 3z"/>
<path d="M5332 7091 c-39 -40 -62 -91 -62 -140 0 -46 11 -55 80 -66 59 -10 72
-21 70 -64 -3 -60 -1 -71 15 -71 24 0 35 35 35 117 0 84 -22 194 -46 230 -20
32 -57 29 -92 -6z"/>
<path d="M2925 6555 c-74 -13 -356 -127 -484 -196 -89 -48 -180 -118 -202
-156 -9 -15 -20 -44 -24 -63 -4 -19 -18 -53 -30 -75 -12 -22 -25 -56 -29 -75
-4 -19 -20 -51 -36 -72 -35 -43 -37 -61 -10 -95 17 -22 19 -35 14 -76 l-7 -50
49 6 c248 31 238 28 314 110 45 49 46 50 138 63 61 9 141 32 240 69 181 68
192 74 192 97 0 28 -54 46 -151 53 -134 10 -147 13 -181 50 -18 20 -41 35 -53
35 -13 0 -33 9 -46 19 -20 16 -22 23 -14 47 24 67 125 104 287 104 167 0 309
-35 374 -93 47 -41 43 -68 -14 -86 -24 -7 -41 -18 -39 -24 2 -6 44 -31 93 -56
73 -37 98 -45 141 -44 61 0 68 -9 48 -68 -37 -104 -99 -174 -174 -195 -70 -21
-81 -29 -81 -66 0 -21 12 -44 40 -75 59 -68 68 -110 40 -203 -48 -158 -52
-177 -40 -219 13 -48 86 -132 136 -156 54 -25 102 -15 253 55 71 33 139 60
151 60 11 0 37 7 57 15 51 22 65 19 154 -26 45 -22 82 -39 83 -37 2 2 21 27
44 55 57 74 60 99 23 175 -17 35 -42 101 -56 147 -14 46 -26 85 -27 86 -2 1
-70 9 -152 17 -175 19 -238 44 -293 116 -41 54 -42 88 -6 162 40 84 37 149
-15 279 -38 92 -42 112 -42 186 0 46 -3 91 -6 100 -11 26 -56 43 -161 59 -55
8 -123 24 -152 35 -42 17 -73 21 -164 20 -62 0 -143 -7 -182 -14z"/>
<path d="M4342 6482 c-45 -13 -64 -13 -135 -2 -91 14 -213 2 -254 -26 -30 -19
-30 -58 2 -214 28 -136 45 -168 147 -267 81 -79 101 -85 331 -91 195 -5 197
-5 197 16 0 40 -210 122 -315 122 -65 0 -80 10 -72 47 8 43 -3 52 -71 59 l-61
7 47 43 c69 64 156 104 246 115 88 9 114 21 122 54 11 46 -72 157 -115 154 -9
-1 -40 -8 -69 -17z"/>
<path d="M1379 6151 c-24 -17 -69 -62 -99 -101 -55 -71 -93 -101 -118 -93 -18
7 -39 51 -47 103 -12 75 -21 79 -40 19 -32 -104 -33 -599 0 -599 7 0 32 21 55
46 l42 46 -7 65 c-6 60 -4 70 24 126 17 34 65 103 106 152 104 123 155 201
155 236 0 37 -15 37 -71 0z"/>
<path d="M1733 6024 c-66 -32 -107 -80 -190 -219 -36 -60 -104 -164 -152 -230
-47 -66 -93 -142 -103 -170 -15 -44 -23 -53 -69 -77 -29 -15 -69 -44 -89 -63
-20 -20 -59 -44 -86 -53 -56 -20 -81 -54 -70 -95 8 -32 27 -34 65 -6 34 25 96
40 123 30 17 -6 8 -20 -74 -112 -125 -141 -138 -162 -138 -235 0 -111 63 -429
102 -519 7 -16 25 -50 40 -75 15 -25 39 -81 54 -125 39 -116 37 -197 -9 -341
-39 -121 -50 -176 -67 -329 -14 -117 -23 -143 -84 -229 -53 -73 -56 -100 -25
-171 45 -102 11 -209 -126 -389 -44 -58 -77 -112 -79 -130 -3 -17 -7 -50 -10
-74 -8 -77 -32 -90 -216 -118 -104 -16 -294 -15 -467 2 l-63 7 0 -1152 0
-1151 1770 0 c980 0 1770 4 1770 9 0 38 -1158 1793 -1334 2021 -176 228 -652
758 -791 880 -117 102 -138 129 -137 179 1 41 35 137 59 164 27 29 81 21 152
-20 106 -63 184 -143 277 -285 108 -163 199 -271 360 -428 181 -175 256 -221
413 -254 100 -21 174 -61 263 -143 113 -103 179 -136 493 -243 175 -59 230
-74 374 -101 141 -26 197 -26 256 0 53 24 90 27 101 9 4 -6 7 -31 5 -55 -2
-43 -2 -43 32 -43 43 0 105 40 196 125 72 69 73 70 100 187 6 25 77 180 159
345 120 241 168 327 253 449 129 186 175 278 228 459 23 77 61 181 86 232 47
98 58 109 147 133 45 12 88 41 88 60 0 16 -43 38 -87 45 l-42 7 6 97 c7 115
-2 191 -22 191 -8 0 -17 -11 -21 -24 -3 -13 -28 -43 -55 -66 -63 -53 -103 -60
-184 -30 -112 41 -105 44 -105 -49 0 -59 -4 -83 -13 -87 -8 -3 -40 5 -73 17
-95 36 -121 39 -213 23 -118 -19 -144 -18 -167 7 -49 55 -74 64 -174 65 -80 1
-108 6 -179 33 -46 17 -104 36 -129 42 -28 6 -61 23 -84 44 -21 19 -48 35 -59
35 -12 0 -42 -19 -66 -41 l-45 -41 -82 6 c-120 10 -260 41 -372 82 -108 39
-122 47 -135 81 -7 19 -16 23 -54 23 -26 0 -55 5 -67 11 -26 14 -58 84 -58
130 0 22 -13 60 -32 95 -29 53 -33 67 -33 144 0 67 4 92 18 114 17 26 20 27
35 13 8 -9 27 -40 41 -69 20 -41 36 -58 72 -78 26 -14 62 -35 80 -47 19 -13
44 -23 56 -23 12 0 33 -4 48 -10 l26 -10 -22 -29 c-31 -42 -38 -125 -13 -152
32 -36 120 -22 248 39 120 57 127 70 69 115 -25 19 -48 27 -75 27 -37 0 -41
-3 -55 -40 -9 -22 -19 -40 -23 -40 -10 0 -46 41 -60 68 -16 32 -7 62 29 96
l30 29 35 -30 c66 -59 115 -68 366 -66 309 1 520 32 520 76 0 16 -34 49 -69
67 -50 26 -214 50 -414 62 l-208 12 43 22 c78 39 144 49 313 49 178 0 226 -10
345 -70 85 -43 150 -92 225 -171 33 -34 81 -75 108 -89 l47 -27 0 36 c0 57
-23 98 -81 147 -114 96 -173 133 -462 286 -67 36 -220 38 -507 7 -209 -22
-267 -37 -324 -84 -84 -70 -123 -62 -149 29 l-13 46 -81 0 c-107 0 -123 13
-123 101 0 45 -6 73 -20 97 -11 19 -25 60 -31 93 -15 79 -30 105 -110 190 -38
40 -69 78 -69 84 0 7 -25 10 -74 9 -62 -2 -77 0 -101 19 -45 36 -88 29 -190
-30 -50 -28 -109 -60 -132 -70 -34 -15 -43 -24 -43 -43 0 -14 -3 -25 -6 -25
-3 0 -33 23 -67 50 -34 28 -69 50 -78 50 -23 0 -86 -72 -109 -123 -10 -23 -40
-64 -68 -90 l-50 -49 -16 24 c-9 12 -27 38 -39 57 -12 19 -28 36 -34 39 -7 2
-34 -30 -60 -71 -78 -122 -74 -119 -70 -61 5 67 37 128 97 184 50 46 63 77 79
181 9 57 0 79 -26 63 -33 -20 -62 -75 -78 -150 -10 -41 -21 -77 -26 -80 -6 -3
-21 2 -34 10 -24 16 -25 17 -10 54 19 45 109 199 180 307 67 102 76 120 69
139 -8 20 -48 21 -64 1 -15 -18 -40 -20 -40 -3 0 13 41 69 78 104 15 15 51 37
79 51 53 25 69 48 61 90 -5 28 -56 27 -115 -3z m386 -959 c40 -34 55 -84 48
-159 -6 -60 3 -94 29 -109 23 -14 16 -41 -27 -98 -65 -87 -82 -118 -85 -162
-5 -52 -68 -186 -128 -270 -24 -34 -51 -79 -60 -101 -9 -21 -29 -53 -46 -72
-16 -19 -34 -51 -40 -71 -12 -46 -26 -68 -33 -56 -13 20 -76 232 -86 285 -6
32 -22 79 -36 105 -29 56 -30 61 -9 84 12 13 13 22 5 38 -15 27 -70 67 -103
75 -25 6 -28 11 -28 49 1 58 62 319 83 351 20 29 48 34 68 10 8 -9 30 -48 49
-87 39 -78 55 -93 92 -84 33 9 152 167 174 230 23 69 79 86 133 42z m-898
-568 c4 -93 10 -141 22 -163 12 -23 13 -34 4 -43 -18 -18 -45 -13 -63 14 -29
45 -7 361 24 331 4 -4 10 -67 13 -139z m415 -987 c17 -7 25 -23 38 -79 18 -80
20 -107 7 -115 -18 -11 -41 7 -90 68 -57 72 -84 122 -75 137 7 11 78 5 120
-11z"/>
<path d="M4676 5973 c4 -10 9 -40 12 -68 4 -54 17 -73 76 -116 82 -61 101 -21
37 78 -49 77 -151 162 -125 106z"/>
<path d="M5357 5553 c-43 -49 -86 -374 -88 -672 0 -69 -5 -151 -10 -181 -22
-119 -12 -154 30 -109 29 31 51 11 51 -46 0 -75 75 -255 106 -255 13 0 15 7
10 33 -13 68 -25 384 -26 662 -1 393 -17 585 -48 585 -5 0 -16 -8 -25 -17z"/>
<path d="M3952 1579 c-12 -4 -29 -24 -39 -43 -20 -43 -6 -66 41 -66 130 -1
298 -99 375 -218 56 -88 86 -203 59 -230 -37 -37 -77 14 -123 158 -60 187 -66
191 -314 202 l-186 8 -68 -73 c-141 -149 -307 -384 -307 -432 0 -20 11 -26
103 -49 164 -43 152 -43 163 1 l11 38 82 -83 c150 -152 197 -236 257 -459 19
-69 28 -133 31 -215 l5 -118 63 0 63 0 15 43 15 42 11 -30 c6 -16 14 -36 16
-42 3 -10 49 -13 181 -13 l176 0 -7 43 c-25 159 -87 328 -178 489 -126 221
-144 272 -51 140 65 -92 117 -150 172 -194 56 -45 92 -49 120 -13 11 14 23 25
26 25 14 0 46 -86 46 -123 0 -21 -11 -63 -24 -95 -28 -68 -35 -99 -45 -197
l-7 -75 138 0 c76 0 138 3 138 8 0 4 -11 34 -25 67 -13 33 -25 68 -25 78 0 16
2 16 28 3 15 -8 61 -46 104 -85 l76 -71 241 0 c133 0 241 2 241 6 0 19 -422
580 -669 889 -163 204 -297 345 -327 345 -29 0 -34 -22 -35 -160 -1 -171 -9
-176 -53 -35 -21 66 -59 165 -86 220 -73 153 -155 232 -296 289 -78 31 -104
36 -132 25z"/>
</g>
</svg>
