<?xml version="1.0" encoding="UTF-8" standalone="no"?>
<!-- Created with Inkscape (http://www.inkscape.org/) -->

<svg
   xmlns:dc="http://purl.org/dc/elements/1.1/"
   xmlns:cc="http://creativecommons.org/ns#"
   xmlns:rdf="http://www.w3.org/1999/02/22-rdf-syntax-ns#"
   xmlns:svg="http://www.w3.org/2000/svg"
   xmlns="http://www.w3.org/2000/svg"
   xmlns:sodipodi="http://sodipodi.sourceforge.net/DTD/sodipodi-0.dtd"
   xmlns:inkscape="http://www.inkscape.org/namespaces/inkscape"
   version="1.1"
   id="svg96"
   width="860"
   height="516"
   viewBox="0 0 860 516"
   sodipodi:docname="donad trump.svg"
   inkscape:export-filename="C:\Users\user\Downloads\donadl-trump.png"
   inkscape:export-xdpi="171.38312"
   inkscape:export-ydpi="171.38312"
   inkscape:version="0.92.4 (5da689c313, 2019-01-14)">
  <metadata
     id="metadata102">
    <rdf:RDF>
      <cc:Work
         rdf:about="">
        <dc:format>image/svg+xml</dc:format>
        <dc:type
           rdf:resource="http://purl.org/dc/dcmitype/StillImage" />
        <dc:title></dc:title>
      </cc:Work>
    </rdf:RDF>
  </metadata>
  <defs
     id="defs100" />
  <sodipodi:namedview
     pagecolor="#ffffff"
     bordercolor="#666666"
     borderopacity="1"
     objecttolerance="10"
     gridtolerance="10"
     guidetolerance="10"
     inkscape:pageopacity="0"
     inkscape:pageshadow="2"
     inkscape:window-width="1366"
     inkscape:window-height="705"
     id="namedview98"
     showgrid="false"
     inkscape:zoom="0.47195267"
     inkscape:cx="108.52547"
     inkscape:cy="437.12917"
     inkscape:window-x="-8"
     inkscape:window-y="-8"
     inkscape:window-maximized="1"
     inkscape:current-layer="svg96" />
  <path
     inkscape:connector-curvature="0"
	 preserveAspectRatio=""
     id="path116"
     d="M 1.2829148e-5,461.93833 V 408.93609 L 10.623723,400.63508 c 19.58761,-15.30512 41.21069,-25.29771 62.876146,-29.05674 6.85185,-1.18881 20.86741,-4.22921 31.145691,-6.75644 35.38772,-8.70113 50.06441,-9.66366 89.07732,-5.84193 11.4633,1.12295 18.60984,1.15169 26.37921,0.10613 14.14305,-1.90338 15.89792,-2.94358 15.89792,-9.42348 0,-3.47128 1.03035,-6.4294 3.11847,-8.95308 12.19317,-14.73665 15.06458,-23.01317 10.82704,-31.20768 -2.20328,-4.26068 -2.05576,-4.77237 3.42917,-11.89462 2.97105,-3.85795 3.76043,-6.61368 4.55507,-15.90182 0.52866,-6.17933 2.05678,-14.01464 3.39581,-17.4118 4.17576,-10.59398 4.55388,-17.19924 1.48449,-25.93217 -1.50837,-4.29161 -3.61248,-8.76697 -4.67577,-9.94524 -3.73933,-4.14365 -9.99688,-35.22393 -8.37863,-41.6154 0.44472,-1.75647 4.20695,-6.66825 8.36051,-10.91509 4.15356,-4.24683 7.2016,-8.07183 6.77344,-8.5 -1.62325,-1.62324 -7.74881,-0.6842 -10.23932,1.56968 -2.38281,2.15641 -2.66357,2.16864 -3.43832,0.14968 -1.02921,-2.68208 1.62693,-6.16451 4.70184,-6.16451 1.23968,0 3.93196,-1.75145 5.98285,-3.89212 2.0509,-2.14068 5.16315,-4.25211 6.91612,-4.69208 2.07836,-0.52163 3.18723,-1.76147 3.18723,-3.56365 0,-1.52004 1.23343,-4.35862 2.74096,-6.30794 6.7026,-8.66686 11.72475,-16.11654 15.82977,-23.48136 4.86708,-8.73202 9.33215,-12.9592 15.02847,-14.22778 3.26817,-0.72783 3.73413,-0.43984 3.73413,2.30793 0,2.3212 -0.95573,3.37054 -3.66666,4.0258 -3.79336,0.91689 -10.85052,7.90015 -10.94582,10.8312 -0.0685,2.109 1.60646,2.13936 3.67915,0.0667 1.12076,-1.12076 2.02071,-1.1793 3.00456,-0.19544 0.98385,0.98385 -0.0145,3.26371 -3.33333,7.61153 -2.60584,3.41384 -4.7379,6.66547 -4.7379,7.22585 0,0.56038 -2.1,4.20755 -4.66666,8.10484 -5.12024,7.77468 -5.73282,10.52779 -2.60916,11.72644 2.7942,1.07224 3.3813,0.23222 4.22286,-6.04206 0.68444,-5.10288 4.80647,-10.85543 6.53788,-9.12402 0.44106,0.44104 0.005,3.91044 -0.96853,7.70978 -1.21489,4.7403 -2.68236,7.32338 -4.67668,8.23205 -3.53503,1.61067 -7.59268,10.12125 -6.91124,14.49576 0.43588,2.79812 0.98093,2.33372 4.45079,-3.79219 2.17474,-3.83944 4.38866,-6.98944 4.91984,-7 0.53117,-0.0107 1.89657,1.78079 3.03424,3.98079 1.13766,2.2 2.47024,4 2.96128,4 1.56496,0 8.37205,-7.10327 8.37205,-8.73631 0,-2.25652 5.23873,-8.59816 7.09677,-8.59085 0.86344,0.004 3.5199,1.8338 5.90323,4.06757 3.93759,3.6905 4.33333,3.81171 4.33333,1.32718 0,-1.50384 0.67152,-2.73426 1.49226,-2.73426 0.82073,0 4.94922,-2.1 9.17441,-4.66666 8.54147,-5.18867 10.8674,-5.63795 13.39856,-2.58807 1.28035,1.54271 3.04116,1.85624 6.82993,1.21613 3.63948,-0.61489 5.10484,-0.38729 5.10484,0.79288 0,0.91044 2.45106,3.91815 5.44679,6.68379 4.26233,3.93497 5.61439,6.278 6.21751,10.7746 0.42389,3.16039 1.60421,6.57965 2.62292,7.59836 1.21369,1.21369 1.55473,3.20661 0.98928,5.78107 -1.1676,5.31605 2.27532,8.00417 8.92986,6.97214 4.5719,-0.70902 4.9278,-0.50636 5.75934,3.27958 1.29068,5.8764 5.34625,6.64988 10.23705,1.95242 3.53224,-3.39262 5.53903,-3.98866 18.87487,-5.6061 21.76885,-2.64026 33.76829,-2.38488 38.09369,0.8107 1.92245,1.42031 6.22789,3.79046 9.56767,5.26699 5.534,2.44664 14.5436,8.52095 22.26102,15.00849 1.71256,1.43964 3,4.02804 3,6.03151 v 3.5096 l -4.15797,-2.40871 c -2.28688,-1.3248 -5.05532,-3.75786 -6.15209,-5.40681 -3.39591,-5.1056 -13.98943,-11.96276 -22.13927,-14.33067 -10.13719,-2.94533 -28.54264,-2.23724 -36.21733,1.39336 l -5.33334,2.52299 16.66667,0.86649 c 17.75657,0.92319 26.67865,2.87584 30.02236,6.5706 1.89273,2.09145 1.75527,2.39953 -1.6452,3.68731 -7.24701,2.74446 -37.63103,4.25276 -47.80551,2.3731 -2.88108,-0.53225 -6.53438,-2.17306 -8.11848,-3.64626 l -2.88016,-2.67854 -2.68756,2.68756 c -3.04762,3.04763 -2.60978,6.84831 1.18451,10.2821 2.33939,2.11712 2.51727,2.0508 3.34495,-1.24698 1.0483,-4.17676 4.33666,-4.52585 8.77072,-0.9311 3.66517,2.97141 3.94377,2.61609 -5.65186,7.2083 -11.80682,5.65043 -17.8696,4.58563 -16.37721,-2.87632 0.47,-2.34998 1.37704,-4.59562 2.01565,-4.99032 2.42332,-1.49769 1.01278,-3.22689 -2.63222,-3.22689 -2.08635,0 -4.849,-1.16648 -6.13924,-2.59217 -1.29024,-1.42571 -3.55802,-2.77571 -5.03948,-3 -1.71335,-0.25942 -3.23966,-2.06966 -4.1941,-4.97435 -1.93605,-5.89204 -4.43617,-6.63948 -6.27234,-1.87519 -1.82643,4.739 -0.78792,13.24488 1.99217,16.31686 1.16215,1.28416 2.113,4.44458 2.113,7.02318 0,4.87272 3.5134,9.49227 6.86939,9.03214 3.551,-0.48687 5.13061,0.10053 5.13061,1.90777 0,1.01103 1.65,2.41483 3.66667,3.11955 2.01666,0.70472 6.66666,2.34522 10.33333,3.64556 3.66667,1.30033 11.16667,2.82701 16.66667,3.39262 9.65214,0.9926 10.0957,0.91154 12.75134,-2.33045 2.37222,-2.896 3.15306,-3.14384 5.66667,-1.7986 1.60343,0.85813 2.91532,2.07235 2.91532,2.69827 0,0.62592 2.09175,1.53045 4.64832,2.01006 2.55657,0.47962 7.09664,1.96818 10.08903,3.30791 3.69654,1.655 7.3031,2.22595 11.2503,1.78104 5.00648,-0.56429 6.3081,-0.15633 9.41559,2.95116 3.55649,3.55649 3.71799,3.58385 11.76804,1.99357 7.01281,-1.38538 8.88899,-1.30709 13.32488,0.55599 8.15511,3.42517 9.30104,3.00905 8.48421,-3.08085 -0.8741,-6.51698 -0.27796,-7.14547 4.45579,-4.69756 4.695,2.42788 11.41764,2.52198 12.83092,0.17961 0.58644,-0.97197 2.11625,-2.15313 3.39959,-2.62483 1.28333,-0.47168 2.33333,-1.77642 2.33333,-2.89945 0,-1.12301 0.60268,-2.04184 1.33929,-2.04184 0.80448,0 1.2038,3.84388 1,9.62616 l -0.33929,9.62616 3.89,0.70717 c 7.60997,1.38344 5.15912,5.17043 -4.69765,7.2587 -2.70647,0.57338 -4.29006,2.55377 -7.16532,8.96072 -2.03006,4.52356 -4.51234,11.74534 -5.51616,16.04841 -2.35122,10.07872 -6.34007,17.78072 -16.38896,31.64503 -4.46706,6.16312 -8.12191,11.69725 -8.12191,12.29808 0,1.28204 -6.83556,15.24582 -13.94949,28.49624 -2.91459,5.4287 -4.96924,11.07242 -4.91128,13.49034 0.0776,3.23722 -1.09459,5.22908 -5.29774,9.00234 -7.50529,6.73762 -10.71594,8.84065 -13.4969,8.84065 -1.88691,0 -2.21846,-0.70496 -1.5619,-3.32091 1.13243,-4.51197 -2.51074,-5.79097 -8.02954,-2.8189 -3.96516,2.13537 -4.98414,2.14114 -16.15926,0.0915 -12.40957,-2.2761 -14.258,-2.81576 -35.47641,-10.35729 -13.33351,-4.73907 -18.09468,-7.46029 -23.78415,-13.59373 -4.42021,-4.76515 -11.27068,-8.1134 -18.86394,-9.22002 -3.49788,-0.50977 -9.0152,-2.76344 -12.66667,-5.17398 -9.52981,-6.29118 -29.26396,-26.99023 -35.21793,-36.93994 -2.85242,-4.76666 -6.85088,-10.554 -8.8855,-12.86072 -5.58602,-6.33317 -14.98178,-12.47264 -19.0879,-12.47264 -3.02288,0 -4.02619,0.92726 -5.79995,5.36032 -3.59071,8.97406 -2.94559,11.09378 5.52189,18.14368 4.21667,3.51075 10.66667,9.77318 14.33334,13.91651 3.66666,4.14335 13.6743,15.27377 22.23921,24.73431 8.56491,9.46052 19.46516,22.8959 24.22281,29.8564 34.53744,50.52869 84.87131,127.58752 84.87131,129.93401 0,0.39677 -95.4,0.7214 -212,0.7214 H 1.2829148e-5 Z M 299.3164,289.63466 c 0.5939,-0.96097 -1.11191,-9.57304 -2.55683,-12.90852 -0.0511,-0.11786 -2.34289,-0.63469 -5.09289,-1.14838 -4.36735,-0.81579 -5,-0.60972 -5,1.62854 0,2.42204 8.9489,13.65528 10.9213,13.70912 0.50672,0.0139 1.28451,-0.5625 1.72842,-1.28076 z m 6.34838,-13.50441 c -0.44054,-7.69659 -1.44678,-11.85635 -2.868,-11.85635 -2.7086,0 -3.71081,11.80075 -1.37317,16.16868 2.35596,4.40214 4.60888,2.11142 4.24117,-4.31233 z m -32.33144,-28.60171 c 0,-1.14328 -0.6,-1.70786 -1.33333,-1.25464 -1.72521,1.06624 -1.72521,3.33334 0,3.33334 0.73333,0 1.33333,-0.93542 1.33333,-2.0787 z m 33.96964,-4.44972 c 0.4665,-2.12396 2.01416,-4.91694 3.43927,-6.20665 1.42511,-1.28969 2.59109,-3.10595 2.59109,-4.03612 0,-0.93017 2.14996,-4.50783 4.77768,-7.95033 4.46376,-5.84784 9.06,-16.99635 7.60643,-18.44992 -0.35519,-0.3552 1.51308,-3.47322 4.15172,-6.92892 5.4522,-7.14055 5.57555,-7.59407 2.71179,-9.97078 -1.34664,-1.11762 -1.803,-2.85738 -1.2879,-4.90976 1.38935,-5.53557 -0.5632,-11.89561 -4.15426,-13.53181 -3.86866,-1.76267 -8.47212,0.0669 -8.47212,3.36715 0,1.15166 -1.35,3.79309 -3,5.86981 -1.65,2.07673 -4.07802,5.31335 -5.39558,7.19248 -3.10568,4.42935 -5.95872,4.33787 -7.79902,-0.25007 -3.20978,-8.00208 -4.34951,-9.66666 -6.61868,-9.66666 -3.1006,0 -3.60491,0.97053 -6.05066,11.64452 -3.68185,16.06877 -3.75949,17.68881 -0.84769,17.68881 1.41907,0 3.98929,1.5 5.71163,3.33333 1.72233,1.83334 2.42692,3.33334 1.56574,3.33334 -2.16048,0 -1.88934,4.1267 0.47666,7.25484 1.07668,1.42349 1.9576,3.96134 1.9576,5.63968 0,1.67833 0.84886,5.31365 1.88636,8.07849 1.0375,2.76484 2.24893,6.67699 2.69208,8.69365 1.04888,4.77336 2.98706,4.68019 4.05786,-0.19508 z m -26.96052,-9.45481 c 4.12672,-8.0816 3.2657,-11.14732 -2.13662,-7.60757 -1.96131,1.28509 -3.23083,3.36017 -3.18023,5.1982 0.0463,1.6826 -0.40017,4.78749 -0.9922,6.89977 -1.808,6.45072 2.16675,3.62173 6.30905,-4.4904 z M 270.0361,224.2155 c 0.47308,-0.76546 0.11334,-2.29154 -0.79934,-3.3913 -1.04747,-1.26214 -1.54855,-5.42032 -1.35866,-11.27494 0.3093,-9.5365 -1.6071,-12.64354 -3.4594,-5.60869 -1.22676,4.65908 -1.15212,18.06793 0.112,20.11325 1.19295,1.93023 4.35503,2.02308 5.50544,0.16168 z m 187.18804,289.72507 c -0.06,-0.55 -0.0201,-4.38975 0.0888,-8.53279 0.1343,-5.10778 -1.09876,-11.68145 -3.83024,-20.41989 -3.57228,-11.42828 -4.95629,-13.93387 -12.22616,-22.13389 -8.62526,-9.7289 -10.58986,-10.9496 -10.58986,-6.5801 0,3.05759 -0.13714,3.10312 -4.2706,1.41822 -1.68451,-0.68664 -5.31274,-1.61383 -8.06274,-2.06042 -2.75,-0.44658 -5,-1.35264 -5,-2.01345 0,-2.76596 9.88142,-17.28844 17.17892,-25.24744 l 7.8575,-8.56976 13.14845,0.27313 c 15.55112,0.32303 16.32657,0.88502 20.59013,14.92186 2.57488,8.47721 5.14428,11.64252 8.01199,9.87017 3.41639,-2.11144 -0.49013,-14.27667 -6.76451,-21.06524 -5.21084,-5.63789 -14.98426,-10.19373 -21.86809,-10.19373 -3.94625,0 -4.61719,-2.68007 -1.46104,-5.8362 1.77651,-1.77651 2.68356,-1.79492 7.34797,-0.14922 10.94123,3.86028 17.28986,9.60518 22.08591,19.98562 2.44901,5.30056 5.18987,12.56893 6.0908,16.15192 2.65523,10.55982 3.78197,9.79948 3.78197,-2.55212 0,-8.55568 0.44936,-11.6 1.71222,-11.6 3.14598,0 15.1431,13.74802 37.2328,42.66666 26.03002,34.0771 30.38832,40.03383 30.38832,41.53339 0,0.62331 -6.69575,1.13328 -14.87946,1.13328 h -14.87944 l -7.77721,-7.4182 c -8.64147,-8.24256 -11.62651,-8.54491 -8.33091,-0.8438 1.16004,2.71076 2.41888,5.67867 2.79742,6.59533 0.5134,1.2433 -1.7653,1.66667 -8.9703,1.66667 h -9.65853 l 0.67853,-8.45308 c 0.37927,-4.72492 1.70183,-10.01484 2.99871,-11.99412 2.39447,-3.65443 2.08312,-10.07539 -0.68949,-14.21947 -1.1671,-1.74438 -1.51387,-1.70178 -2.71331,0.33334 -0.75635,1.28333 -2.22449,2.33333 -3.26253,2.33333 -2.98198,0 -10.6857,-7.44485 -16.02063,-15.48228 -6.08829,-9.1724 -7.61549,-8.45683 -2.28309,1.06976 2.17937,3.89355 5.79708,10.37919 8.03936,14.41252 3.82422,6.87891 7.85144,19.57936 8.94276,28.20247 l 0.4806,3.79753 -10.23624,-0.0204 c -5.62994,-0.0107 -10.89386,-0.46123 -11.69762,-1 -0.80374,-0.53877 -1.9417,-2.77959 -2.5288,-4.97959 l -1.06742,-4 -1.34848,4.39516 c -0.86443,2.81748 -1.9908,4.1487 -3.13787,3.70852 -0.98416,-0.37766 -1.78939,-0.10546 -1.78939,0.60483 0,1.50196 -3.94645,1.78191 -4.1092,0.29149 z m 28.91734,-59.66667 c -0.80335,-2.56666 -2.21383,-4.66666 -3.13439,-4.66666 -2.28005,0 -2.10388,2.79254 0.40185,6.36998 3.08447,4.4037 4.3894,3.59027 2.73254,-1.70332 z m 60.6825,-237.87985 c -1.72142,-4.33391 -2.70938,-8.5602 -2.19546,-9.39173 0.51392,-0.83155 0.20376,-2.39227 -0.68926,-3.46827 -1.41772,-1.70825 -1.82924,-1.67523 -3.2446,0.26039 -2.1906,2.99582 -3.96654,0.10173 -2.08964,-3.40532 0.76724,-1.43362 1.39847,-9.99602 1.40271,-19.02756 0.009,-20.56283 3.41271,-42.42099 6.6044,-42.42099 2.48787,0 3.27693,9.82361 3.37359,42 0.0551,18.33333 0.60933,35.58333 1.23166,38.33333 1.74418,7.70707 -0.86853,5.99447 -4.3934,-2.87985 z m -130.1573,-43.75309 c -4.22835,-0.99316 -9.89611,-7.12399 -10.73886,-11.61626 -0.50478,-2.69076 0.20052,-6.38437 2.03739,-10.66962 3.34969,-7.81452 2.64481,-13.02532 -2.39365,-17.69482 -4.26374,-3.95148 -2.79631,-7.37733 3.5922,-8.38636 3.17021,-0.50071 5.20881,-2.16023 8.18953,-6.66666 2.18275,-3.3 3.9712,-7.41505 3.97435,-9.14455 0.005,-2.65677 -0.49206,-3.01961 -3.20328,-2.33914 -2.15758,0.54152 -5.60938,-0.45728 -10.5352,-3.04841 -7.2095,-3.792418 -7.26459,-3.866148 -3.45768,-4.627527 8.10249,-1.620501 1.95941,-8.932426 -9.58454,-11.408158 -9.77586,-2.096548 -24.63278,-1.801047 -29.24029,0.581584 -7.02381,3.632161 -7.71539,9.9862 -1.08688,9.9862 1.2942,0 2.99531,1.2 3.78024,2.666661 1.09457,2.04522 2.89216,2.70343 7.71357,2.82442 13.91211,0.34912 18.99106,3.66973 10.02215,6.55247 -2.78799,0.8961 -8.50097,3.05288 -12.69555,4.79286 -4.19456,1.73997 -9.98637,3.16359 -12.87066,3.16359 -4.43739,0 -5.84796,0.75262 -9.16867,4.89197 -3.14783,3.92386 -4.95451,4.9627 -9.12932,5.24939 -2.86267,0.19658 -7.24013,0.7758 -9.72769,1.28717 -4.3847,0.90136 -4.49548,0.82076 -3.62726,-2.63855 0.61188,-2.43791 0.22619,-4.23771 -1.21753,-5.68142 -1.9286,-1.9286 -1.87383,-2.36783 0.62725,-5.03011 1.5072,-1.60434 2.75946,-4.07832 2.78278,-5.49772 0.0233,-1.4194 0.92333,-3.74541 2,-5.16891 1.07668,-1.42349 1.9576,-3.69667 1.9576,-5.051508 0,-5.026148 9.51954,-12.48488 23.33333,-18.282076 7.33333,-3.077563 15.13333,-6.409331 17.33333,-7.403932 6.31631,-2.855545 25.54096,-3.944263 29.08312,-1.647015 1.60428,1.040448 6.40832,2.245871 10.67564,2.678718 10.18208,1.0328 12.06824,2.670128 11.11207,9.646162 -0.56681,4.135299 0.056,7.190486 2.57364,12.624495 4.01107,8.657486 4.407,14.308926 1.33131,19.003026 -3.34818,5.10995 -2.23174,10.12221 3.22422,14.47521 3.89148,3.10479 6.53662,3.90226 15.92396,4.80084 l 11.25728,1.07759 2.32744,7.8514 c 1.2801,4.31827 2.96432,8.48827 3.74272,9.26667 2.21056,2.21056 1.60246,5.20212 -1.93838,9.53584 l -3.25776,3.98725 -5.78854,-3.16212 c -4.72541,-2.58137 -6.30609,-2.88512 -8.60664,-1.65391 -1.54996,0.82951 -3.92409,1.5082 -5.27585,1.5082 -1.35177,0 -5.78289,1.72519 -9.84696,3.83376 -8.70549,4.51668 -11.60013,5.37976 -15.20393,4.5333 z M 256.18173,128.39232 c -0.21167,-9.65186 0.29676,-18.15085 1.29613,-21.66667 l 1.6444,-5.78508 0.91823,5.13888 c 1.59239,8.91188 5.51553,9.19779 11.318,0.82484 3.60157,-5.19707 9.62567,-10.090683 10.87895,-8.837402 1.534,1.533994 -1.61355,6.962842 -9.03895,15.590272 -8.91579,10.35908 -11.01576,14.71137 -9.79031,20.29082 0.65078,2.96295 0.13722,4.63796 -2.17734,7.10171 -1.66595,1.77332 -3.40516,3.22421 -3.86492,3.22421 -0.45975,0 -0.99264,-7.1467 -1.18419,-15.88158 z m 247.87936,-6.27163 c -2.96905,-2.49829 -3.91165,-4.21711 -3.32548,-6.06398 0.44993,-1.41759 0.0185,-3.58262 -0.95877,-4.81117 -0.97914,-1.23092 0.0189,-0.85492 2.22317,0.83752 3.56817,2.7397 8.46173,9.85726 8.61077,12.52418 0.10814,1.93478 -2.44894,0.964 -6.54969,-2.48655 z m -32.70252,-5.50311 c -4.23816,-0.43226 -6.58019,-1.84734 -11.61896,-7.02033 -3.47097,-3.56342 -6.58101,-7.86893 -6.91121,-9.56781 -0.33022,-1.698876 -1.30118,-6.567753 -2.15771,-10.819724 -1.13509,-5.634812 -1.15937,-8.210351 -0.0896,-9.499375 1.88264,-2.268432 14.40543,-3.498937 18.75224,-1.84262 2.28132,0.869279 4.96508,0.733115 8.5036,-0.431442 4.95153,-1.629598 5.30407,-1.546018 8.33333,1.975706 5.5723,6.47819 3.75344,10.195254 -4.98881,10.195254 -5.27428,0 -11.65107,2.912354 -16.49775,7.534713 l -3.98294,3.798618 5.10546,0.42112 c 4.67208,0.38538 5.03632,0.69663 4.2909,3.66667 -0.76086,3.03146 -0.46442,3.24554 4.49414,3.24554 6.04851,0 19.03158,4.46902 21.45054,7.38369 1.3987,1.68534 0.19509,1.91926 -8.87854,1.72551 -5.77312,-0.12328 -12.88524,-0.46776 -15.80469,-0.76552 z M 260.00001,93.862079 c 0,-1.64817 3.698,-6.34062 4.40224,-5.586078 1.008,1.079996 -1.52759,6.664571 -3.02595,6.664571 -0.75696,0 -1.37629,-0.485323 -1.37629,-1.078493 z m 52.69684,-1.539343 c -0.96507,-1.56152 3.21199,-5.634777 5.12459,-4.997244 0.83154,0.277183 1.5119,1.285237 1.5119,2.24012 0,2.085344 -5.61098,4.416423 -6.63649,2.757124 z m -24.97377,-9.630549 c -1.77572,-2.67439 -2.30047,-2.77878 -6.08603,-1.210747 -7.43284,3.078783 -9.23184,-1.087189 -3.63704,-8.422352 1.83333,-2.403624 3.33333,-5.948183 3.33333,-7.876797 0,-2.562854 1.09795,-4.074344 4.07966,-5.61624 2.2438,-1.160318 6.36894,-4.177919 9.16698,-6.70578 2.79804,-2.527862 9.1435,-7.553195 14.101,-11.167408 4.95752,-3.614214 10.08802,-8.209047 11.40111,-10.210742 2.60271,-3.967596 19.68793,-19.208216 21.53304,-19.208216 2.30555,0 10.33221,-9.2524898 9.62515,-11.0950828 -0.56295,-1.466998 0.82402,-1.921345 6.23758,-2.04331 3.82882,-0.08626 7.63316,0.400602 8.45411,1.08192 0.86727,0.719775 3.54031,0.776928 6.38024,0.136419 2.6882,-0.606287 5.21192,-0.778053 5.60827,-0.381702 1.47826,1.478264 13.41748,2.589756 16.94648,1.577649 2.47096,-0.70866 4.12204,-0.494084 5.08001,0.660202 1.99051,2.398414 -0.61335,4.162841 -7.75232,5.253147 -5.58852,0.853511 -14.86131,6.4834558 -14.86131,9.0229998 0,0.675989 1.2943,2.979689 2.8762,5.119333 3.55507,4.808491 2.58422,6.270313 -7.57964,11.412756 -3.99416,2.020859 -8.26285,4.780099 -9.48598,6.131645 -1.22314,1.351547 -3.46928,2.457358 -4.99146,2.457358 -2.76609,0 -16.89284,5.268284 -18.15245,6.769589 -0.36667,0.437021 -3.44637,2.408465 -6.8438,4.380988 -3.39743,1.972521 -11.36749,8.970583 -17.71128,15.551247 -7.3254,7.59894 -12.55512,11.964842 -14.33215,11.964842 -1.5389,0 -4.7439,1.202628 -7.12222,2.672506 l -4.3242,2.672506 z m 261.9225,-27.966804 c 0.33991,-4.269046 0.13586,-4.478799 -4.9789,-5.118144 -4.81811,-0.602264 -5.31002,-1.014083 -5.09195,-4.262952 0.3404,-5.071662 5.42225,-11.575356 8.43012,-10.788782 4.15596,1.086807 6.83671,22.773436 2.97407,24.05944 -1.17903,0.392536 -1.58094,-0.779889 -1.33334,-3.889562 z m 4.93654,-31.22004 c -1.21575,-1.464874 -3.00226,-1.865926 -5.89471,-1.323299 -5.23044,0.981239 -10.26971,-2.133617 -7.6874,-4.751711 2.73727,-2.77519 2.03952,-3.590777 -6.49165,-7.5881078 l -8.15832,-3.822626 9.7258,-0.903918 c 5.3492,-0.497156 10.49349,-1.541032 11.43176,-2.319726 2.91546,-2.419624 10.6599,4.570022 11.64128,10.5066958 1.8805,11.375844 -0.0373,15.660397 -4.56676,10.202692 z m -169.7934,-0.367299 c -1.30628,-2.113617 0.78136,-2.747088 11.70002,-3.550224 6.62579,-0.487368 10.17794,-0.265616 10.17794,0.635384 0,0.761219 -0.45,1.434035 -1,1.495145 -2.12815,0.236462 -6.60634,0.842447 -13.18954,1.784803 -4.25737,0.609423 -7.17166,0.471028 -7.68842,-0.365108 z m 146.54462,-5.530805 c -0.45322,-0.733334 -0.22404,-1.333334 0.5093,-1.333334 0.73333,0 1.70414,0.6 2.15737,1.333334 0.45323,0.733333 0.22404,1.333333 -0.50929,1.333333 -0.73334,0 -1.70415,-0.6 -2.15738,-1.333333 z m -44.66666,-16.7335078 -6,-1.718554 5.50341,-0.107303 c 3.37709,-0.06584 6.14471,0.665423 7.16325,1.892698 1.89604,2.284595 1.53011,2.280926 -6.66666,-0.06684 z"
     style="fill:#000000;stroke-width:1.33333337" />
</svg>
